<mxfile host="app.diagrams.net" modified="2024-02-09T04:58:36.581Z" agent="Mozilla/5.0 (X11; Linux x86_64) AppleWebKit/537.36 (KHTML, like Gecko) Chrome/121.0.0.0 Safari/537.36" version="23.1.0" etag="HGOQB3Q2HFn4_eo_mZHm" type="github">
  <diagram name="Page-1" id="jLlFM_F5NksKxQO8hD2W">
    <mxGraphModel>
      <root>
        <mxCell id="0" />
        <mxCell id="1" parent="0" />
      </root>
    </mxGraphModel>
  </diagram>
</mxfile>
